<svg width="795" height="807" viewBox="0 0 795 807" fill="none" xmlns="http://www.w3.org/2000/svg">
<path d="M18.72 117.496V108.856H71.712L154.656 285.112L145.152 307H107.712L18.72 117.496ZM181.44 223.768H180.288L160.992 270.424L136.224 217.432L181.44 108.856H236.16V307H181.44V223.768ZM18.72 146.008L71.712 258.904V307H18.72V146.008ZM312.989 306.136C295.709 306.136 284.093 300.856 278.141 290.296C275.453 285.688 273.629 280.12 272.669 273.592C271.709 266.872 271.229 258.712 271.229 249.112V160.12H324.509V226.648C324.509 236.824 324.605 243.544 324.797 246.808C325.181 251.8 325.757 255.256 326.525 257.176C327.293 259.288 328.541 260.632 330.269 261.208C331.997 261.592 335.069 261.784 339.484 261.784H342.365V297.496C334.685 303.256 324.893 306.136 312.989 306.136ZM332.861 366.328C322.877 366.328 311.165 365.752 297.725 364.6L281.021 362.872V325.72H319.613C326.525 325.72 333.245 325.528 339.773 325.144C344.381 324.76 347.741 323.8 349.853 322.264C352.157 320.92 353.501 318.52 353.885 315.064C354.269 310.456 354.461 305.56 354.461 300.376V160.12H407.741V290.872C407.741 306.232 407.069 318.136 405.725 326.584C404.573 335.032 401.789 342.04 397.373 347.608C392.381 353.944 384.797 358.648 374.621 361.72C364.445 364.792 350.525 366.328 332.861 366.328ZM18.72 516.92V508.856H76.32L187.488 698.648V707H130.176L18.72 516.92ZM132.768 581.144V508.856H187.488V674.744L132.768 581.144ZM18.72 540.824L73.44 634.424V707H18.72V540.824ZM304.652 633.848C304.652 624.056 304.556 617.528 304.364 614.264C304.172 609.656 303.596 606.2 302.636 603.896C301.676 601.4 300.14 599.864 298.028 599.288C295.724 598.712 292.556 598.424 288.524 598.424H284.492V557.816H288.524C305.228 557.816 318.284 559.16 327.692 561.848C337.1 564.344 344.108 568.568 348.716 574.52C352.94 579.896 355.628 587.096 356.78 596.12C358.124 604.952 358.796 617.528 358.796 633.848C358.796 649.016 358.316 660.824 357.356 669.272C356.588 677.528 354.572 684.344 351.308 689.72C347.66 695.672 342.188 700.184 334.892 703.256C327.596 706.136 317.516 707.96 304.652 708.728V633.848ZM288.524 709.304C271.82 709.304 258.764 708.056 249.356 705.56C239.948 703.064 232.94 698.84 228.332 692.888C224.108 687.512 221.324 680.408 219.98 671.576C218.828 662.744 218.252 650.168 218.252 633.848C218.252 618.872 218.732 607.16 219.692 598.712C220.652 590.264 222.764 583.256 226.028 577.688C229.484 571.544 234.86 567.032 242.156 564.152C249.452 561.08 259.532 559.16 272.396 558.392V633.848C272.396 643.64 272.492 650.072 272.684 653.144C272.876 657.752 273.452 661.208 274.412 663.512C275.372 665.816 277.004 667.256 279.308 667.832C281.228 668.408 284.3 668.696 288.524 668.696H292.556V709.304H288.524ZM374.747 560.12H401.819V517.496H455.099V560.12H487.355V600.728H374.747V560.12ZM401.819 612.248H455.099V707H401.819V612.248ZM568.247 619.16H588.407C588.407 608.408 587.351 601.496 585.239 598.424C584.087 596.696 582.551 595.64 580.631 595.256C578.711 594.68 575.927 594.392 572.279 594.392H568.247V557.816H572.279C588.791 557.816 601.463 559.16 610.295 561.848C619.319 564.536 625.943 568.952 630.167 575.096C634.007 580.472 636.311 587.384 637.079 595.832C638.039 604.28 638.519 616.952 638.519 633.848V645.368H568.247V619.16ZM578.039 709.304C560.375 709.304 546.455 707.864 536.279 704.984C526.295 701.912 518.807 697.112 513.815 690.584C509.399 684.824 506.519 677.72 505.175 669.272C503.831 660.632 503.159 648.824 503.159 633.848C503.159 620.024 503.639 609.08 504.599 601.016C505.559 592.76 507.575 585.752 510.647 579.992C514.103 573.656 519.383 568.76 526.487 565.304C533.783 561.656 543.671 559.352 556.151 558.392V645.368C556.151 651.896 556.439 656.6 557.015 659.48C557.591 662.168 558.935 664.184 561.047 665.528C563.351 667.064 566.903 667.928 571.703 668.12C577.847 668.504 584.375 668.696 591.287 668.696C603.575 668.696 612.503 668.408 618.071 667.832L632.759 666.68V703.832C625.079 706.136 614.519 707.672 601.079 708.44C594.551 709.016 586.871 709.304 578.039 709.304ZM776.655 600.152C773.007 599.96 768.015 599.48 761.679 598.712C749.775 597.56 740.175 596.984 732.879 596.984H723.375V557.816C737.007 557.816 749.967 558.776 762.255 560.696L776.655 563.288V600.152ZM734.895 662.36C734.895 659.48 734.415 657.656 733.455 656.888C732.495 656.12 730.479 655.544 727.407 655.16L696.303 650.84C688.623 649.688 682.383 647.864 677.583 645.368C672.975 642.872 669.519 639.512 667.215 635.288C664.911 631.64 663.375 627.224 662.607 622.04C661.839 616.856 661.455 610.424 661.455 602.744C661.455 587 666.159 575.48 675.567 568.184C683.439 562.424 695.343 559.064 711.279 558.104V603.32C711.279 606.2 711.663 608.12 712.431 609.08C713.199 609.848 715.599 610.52 719.631 611.096L754.191 615.704C759.183 616.28 763.503 617.336 767.151 618.872C770.799 620.216 773.871 622.328 776.367 625.208C781.935 631.352 784.719 643.16 784.719 660.632C784.719 679.064 780.015 691.928 770.607 699.224C762.351 705.368 750.447 708.632 734.895 709.016V662.36ZM722.799 709.304C707.439 709.112 693.999 708.152 682.479 706.424L666.063 703.832V666.968C673.743 667.736 684.111 668.504 697.167 669.272C704.463 669.656 709.647 669.848 712.719 669.848H722.799V709.304Z" fill="black"/>
<path d="M495 67C495 39.3858 517.386 17 545 17H762.5L795 0V367C795 394.614 772.614 417 745 417H524L495 430.5V67Z" fill="#1B1B1B"/>
<line x1="545.055" y1="109" x2="745.043" y2="111.186" stroke="white" stroke-width="10"/>
<line x1="545.055" y1="159" x2="745.043" y2="161.186" stroke="white" stroke-width="10"/>
<line x1="545.055" y1="209" x2="745.043" y2="211.186" stroke="white" stroke-width="10"/>
<line x1="545.055" y1="259" x2="745.043" y2="261.186" stroke="white" stroke-width="10"/>
<line x1="545.055" y1="309" x2="745.043" y2="311.186" stroke="white" stroke-width="10"/>
</svg>
